<?xml version="1.0" encoding="utf-8"?>
<!-- Generator: Adobe Illustrator 17.0.0, SVG Export Plug-In . SVG Version: 6.00 Build 0)  -->
<!DOCTYPE svg PUBLIC "-//W3C//DTD SVG 1.1//EN" "http://www.w3.org/Graphics/SVG/1.1/DTD/svg11.dtd">
<svg version="1.1" id="Capa_1" xmlns="http://www.w3.org/2000/svg" xmlns:xlink="http://www.w3.org/1999/xlink" x="0px" y="0px"
	 width="100px" height="100px" viewBox="0 0 100 100" enable-background="new 0 0 100 100" xml:space="preserve">
<linearGradient id="SVGID_1_" gradientUnits="userSpaceOnUse" x1="39.7854" y1="0.4999" x2="39.7854" y2="98.8451">
	<stop  offset="0" style="stop-color:#00AFF2"/>
	<stop  offset="0.2068" style="stop-color:#0098D9"/>
	<stop  offset="0.6432" style="stop-color:#005C99"/>
	<stop  offset="1" style="stop-color:#002761"/>
</linearGradient>
<path fill="url(#SVGID_1_)" d="M47.175,70.268C44.701,59.784,48.42,47.434,57.38,36.384c6.99-8.619,6.888-18.481,5.182-22.673
	l-0.85-2.087C55.612,5.524,50.587,0.5,50.587,0.5S29.142,21.945,21.782,29.306C5.874,45.213,5.727,71.007,21.638,86.917
	c13.061,13.061,33.451,15.395,48.156,7.007C57.129,88.153,49.517,80.196,47.175,70.268z"/>
<linearGradient id="SVGID_2_" gradientUnits="userSpaceOnUse" x1="58.4265" y1="71.5401" x2="83.3114" y2="57.1728">
	<stop  offset="0" style="stop-color:#FFFFFF"/>
	<stop  offset="1" style="stop-color:#FFFFFF"/>
</linearGradient>
<path fill="url(#SVGID_2_)" d="M69.822,35.356c0,0,0.781,0.582,1.822,1.924c0.528,0.668,1.093,1.535,1.663,2.581
	c0.581,1.045,1.11,2.292,1.552,3.708c0.395,1.42,0.745,3,0.858,4.7c0.128,1.695,0.123,3.503-0.127,5.339
	c-0.22,1.842-0.63,3.714-1.186,5.572c-0.315,0.915-0.633,1.836-0.951,2.762l-0.974,2.662c-1.273,3.504-2.274,7.131-2.916,10.566
	c-0.296,1.721-0.526,3.393-0.634,4.989c-0.075,1.592-0.118,3.11,0.001,4.498c0.088,1.394,0.303,2.656,0.537,3.771
	c0.253,1.112,0.582,2.053,0.898,2.814c0.658,1.51,1.212,2.311,1.212,2.311s-0.16-0.18-0.46-0.514
	c-0.316-0.328-0.719-0.857-1.181-1.574c-0.889-1.444-1.922-3.718-2.421-6.627c-0.288-1.449-0.409-3.041-0.439-4.727
	c-0.018-1.685,0.077-3.46,0.325-5.277c0.462-3.639,1.467-7.414,2.757-11.1l1.033-2.691c0.312-0.869,0.625-1.732,0.934-2.589
	c0.534-1.736,1.044-3.456,1.312-5.16c0.289-1.7,0.444-3.364,0.44-4.947c-0.004-1.58-0.166-3.071-0.393-4.443
	c-0.295-1.351-0.607-2.596-1.009-3.666c-0.396-1.067-0.816-1.979-1.231-2.694C70.448,36.094,69.822,35.356,69.822,35.356z"/>
<linearGradient id="SVGID_3_" gradientUnits="userSpaceOnUse" x1="476.9075" y1="239.4226" x2="522.8579" y2="285.373" gradientTransform="matrix(0.7071 0.7071 -0.7071 0.7071 -98.1323 -475.426)">
	<stop  offset="0" style="stop-color:#ADCE32"/>
	<stop  offset="1" style="stop-color:#558820"/>
</linearGradient>
<path fill="url(#SVGID_3_)" d="M79.526,86.679c15.544-15.544,15.543-40.749-0.001-56.293c-3.762-3.762-9.844-9.843-15.395-15.394
	c1.487,3.651,2.279,13.558-5.146,22.713C46.126,53.565,39.804,78.961,71.01,93.121C74.052,91.392,76.933,89.272,79.526,86.679z"/>
<path fill="#FFFFFF" d="M69.52,31.669c0,0,0.763,0.568,1.781,1.88c0.516,0.652,1.068,1.5,1.625,2.522
	c0.568,1.021,1.084,2.24,1.516,3.623c0.386,1.388,0.728,2.932,0.839,4.592c0.125,1.656,0.12,3.423-0.124,5.217
	c-0.215,1.799-0.616,3.629-1.159,5.445c-0.308,0.894-0.618,1.794-0.929,2.699l-0.952,2.601c-1.244,3.424-2.222,6.968-2.85,10.324
	c-0.29,1.682-0.514,3.316-0.619,4.875c-0.074,1.556-0.116,3.039,0.001,4.395c0.086,1.362,0.296,2.595,0.525,3.685
	c0.247,1.086,0.569,2.006,0.877,2.749c0.643,1.476,1.185,2.258,1.185,2.258s-0.157-0.175-0.45-0.502
	c-0.309-0.321-0.702-0.837-1.154-1.538c-0.868-1.411-1.878-3.633-2.366-6.475c-0.281-1.416-0.4-2.972-0.429-4.619
	c-0.018-1.646,0.075-3.381,0.317-5.156c0.451-3.556,1.434-7.244,2.694-10.846l1.009-2.629c0.305-0.849,0.611-1.692,0.912-2.53
	c0.522-1.696,1.02-3.377,1.282-5.042c0.282-1.661,0.434-3.287,0.43-4.834c-0.004-1.544-0.162-3.001-0.384-4.341
	c-0.289-1.32-0.593-2.537-0.986-3.582c-0.387-1.043-0.797-1.934-1.203-2.632C70.131,32.39,69.52,31.669,69.52,31.669z"/>
</svg>
